----------------------------------------------------
IMDB Link: http://www.imdb.com/find?s=all&q=kill+bill
----------------------------------------------------


Release Info:
==============
original name .... : Kill Bill Duology BRRip H264 AAC - R2L [ChattChitto RG]
ripper.............: ESiR
encoder............: Recalled2Life (R2L)
video codec........: H264/.MP4
video bitrate......: 2300 Kbps
audio codec........: AAC-LC
aspect ratio.......: 2.40:1
resolution.........: 1280 x 528
genre..............: Action | Crime
language...........: English
rating.............: R
2ch Audio..........: 2ch Audio for XBox Viewers
Compatibility .....: XBox 360 | PS3 | WD Live


@@@@@@@@@@@@@@@@@@@@@@@@@@@@@@@@@@@@@@@@@@@@@@@@@@@@@@@@@@@@@@@@@@@@@@@@@@@@@@@@@


General                          : ChattChitto RG - Movies

Complete name                    : Kill Bill Vol 1 2003 BRRip.mp4
Format                           : MPEG-4
Format profile                   : Base Media
Codec ID                         : isom
File size                        : 2.05 GiB
Duration                         : 1h 50mn
Overall bit rate                 : 2 649 Kbps
Encoded date                     : UTC 2010-05-31 02:58:17

Video
==========
ID                               : 1
Format                           : AVC
Format/Info                      : Advanced Video Codec
Format profile                   : High@L4.0
Format settings, CABAC           : Yes
Format settings, ReFrames        : 4 frames
Codec ID                         : avc1
Codec ID/Info                    : Advanced Video Coding
Duration                         : 1h 50mn
Bit rate mode                    : Variable
Bit rate                         : 2 300 Kbps
Maximum bit rate                 : 19.2 Mbps
Width                            : 1 280 pixels
Height                           : 528 pixels
Display aspect ratio             : 2.40:1
Frame rate mode                  : Constant
Frame rate                       : 23.976 fps
Resolution                       : 8 bits
Colorimetry                      : 4:2:0
Scan type                        : Progressive
Bits/(Pixel*Frame)               : 0.142
Stream size                      : 1.78 GiB (87%)
Writing library                  : x264 core 84 r1400M 20fa784
Encoded date                     : UTC 2010-05-30 08:15:24

Audio
==========
ID                               : 2
Format                           : AAC
Format/Info                      : Advanced Audio Codec
Format version                   : Version 4
Format profile                   : LC
Format settings, SBR             : No
Codec ID                         : 40
Duration                         : 1h 50mn
Bit rate mode                    : Variable
Bit rate                         : 352.8 Kbps
Maximum bit rate                 : 462 Kbps
Channel(s)                       : 6 channels
Channel positions                : Front: L C R, Side: L R, LFE
Sampling rate                    : 48.0 KHz
Stream size                      : 274 MiB (13%)
Encoded date                     : UTC 2010-05-31 02:59:19

Subtitles                        : Embedded English/Foreign Parts | English | French | Romanian | Spanish



----------------------------------------------------
IMDB Link: http://www.imdb.com/title/tt0266697/
----------------------------------------------------



Screen-Shots Comparison:
=========================  
http://comparescreenshots.slicx.com/comparison/60040



Screen Shots:
============== 
http://img706.imageshack.us/img706/1958/45796115.jpg 
http://img84.imageshack.us/img84/3387/46981779.jpg 
http://img97.imageshack.us/img97/6527/69596165.jpg 
http://img718.imageshack.us/img718/9414/37084585.jpg 
http://img191.imageshack.us/img191/9857/98421914.jpg



Plot:
======
Four years after taking a bullet in the head at her own wedding, The Bride (Uma Thurman) emerges from a coma and decides it's time for payback... with a vengeance! Having been gunned down by her former boss (David Carradine) and his deadly squad of international assassins, it's a kill-or-be-killed fight she didn't start... but is determined to finish.




Release Info:
==============
original name .... : Kill Bill Vol 1 2003 BRRip H264 AAC - R2L [ChattChitto RG]
ripper.............: ESiR
encoder............: Recalled2Life (R2L)
video codec........: H264/.MP4                   
video bitrate......: 2300 Kbps                           
audio codec........: AAC-LC
aspect ratio.......: 2.40:1                              
resolution.........: 1280 x 528                             
genre..............: Action | Crime          
runtime............: 1h 50mn
language...........: English
rating.............: R                             
subtitles..........: Embedded English/Foreign Parts | English | French | Romanian | Spanish
sample.............: Yes [8.20 MB]
2ch Audio..........: 2ch Audio for XBox Viewers  
Compatibility .....: XBox 360 | PS3 | WD Live



Source:
========
Kill Bill Vol 1 2003 1080p BluRay DTS x264-ESiR [8.62 GB]


Notes:
=======
ChattChitto RG Encourages Burning this Film with ConvertXtoDVD.
XBox 360 | PS3 | WD Live - Compatible 
Enhanced for your viewing pleasure ;)


++++++++++++++++++++++++++++++++++++++++++++++++++++++++++++++++++++++++++++++++


General                          : ChattChitto RG - Movies

Complete name                    : Kill Bill Vol 2 2004 BRRip.mp4
Format                           : MPEG-4
Format profile                   : Base Media
Codec ID                         : isom
File size                        : 2.53 GiB
Duration                         : 2h 16mn
Overall bit rate                 : 2 641 Kbps
Encoded date                     : UTC 2010-05-31 03:00:53

Video
==========
ID                               : 1
Format                           : AVC
Format/Info                      : Advanced Video Codec
Format profile                   : High@L4.0
Format settings, CABAC           : Yes
Format settings, ReFrames        : 4 frames
Codec ID                         : avc1
Codec ID/Info                    : Advanced Video Coding
Duration                         : 2h 16mn
Bit rate mode                    : Variable
Bit rate                         : 2 300 Kbps
Maximum bit rate                 : 18.8 Mbps
Width                            : 1 280 pixels
Height                           : 528 pixels
Display aspect ratio             : 2.40:1
Frame rate mode                  : Constant
Frame rate                       : 23.976 fps
Resolution                       : 8 bits
Colorimetry                      : 4:2:0
Scan type                        : Progressive
Bits/(Pixel*Frame)               : 0.142
Stream size                      : 2.20 GiB (87%)
Writing library                  : x264 core 84 r1400M 20fa784
Encoded date                     : UTC 2010-05-31 02:39:33

Audio
==========
ID                               : 2
Format                           : AAC
Format/Info                      : Advanced Audio Codec
Format version                   : Version 4
Format profile                   : LC
Format settings, SBR             : No
Codec ID                         : 40
Duration                         : 2h 16mn
Bit rate mode                    : Variable
Bit rate                         : 338 Kbps
Maximum bit rate                 : 467 Kbps
Channel(s)                       : 6 channels
Channel positions                : Front: L C R, Side: L R, LFE
Sampling rate                    : 48.0 KHz
Stream size                      : 331 MiB (13%)
Encoded date                     : UTC 2010-05-31 03:02:04

Subtitles                        : Embedded English/Foreign Parts | English | Romanian | Spanish




----------------------------------------------------
IMDB Link: http://www.imdb.com/title/tt0378194/
----------------------------------------------------



Screen-Shots Comparison:
=========================  
http://comparescreenshots.slicx.com/comparison/60053



Screen Shots:
============== 
http://img535.imageshack.us/img535/7227/67452078.jpg     
http://img29.imageshack.us/img29/7240/38018232.jpg 
http://img441.imageshack.us/img441/7026/88616514.jpg 
http://img517.imageshack.us/img517/9030/67847557.jpg 
http://img413.imageshack.us/img413/9200/10141403.jpg



Plot:
======
Having dispensed with former colleagues O-Ren Ishii (Lucy Liu) and Vernita Green (Vivica A. Fox), the Bride (Uma Thurman) resumes her quest for justice. With those two down, she has two remaining foes on her "Death List" to pursue — Budd (Michael Madsen) and Elle Driver (Daryl Hannah) — before moving on to her ultimate goal... to kill Bill (David Carradine).




Release Info:
==============
original name .... : Kill Bill Vol 2 2004 BRRip H264 AAC - R2L [ChattChitto RG]
ripper.............: ESiR
encoder............: Recalled2Life (R2L)
video codec........: H264/.MP4                   
video bitrate......: 2300 Kbps                           
audio codec........: AAC-LC
aspect ratio.......: 2.40:1                              
resolution.........: 1280 x 528
genre..............: Action | Crime          
runtime............: 2h 16mn
language...........: English
rating.............: R                             
subtitles..........: Embedded English/Foreign Parts | English | Romanian | Spanish
sample.............: Yes [14.6 GB]
2ch Audio..........: 2ch Audio for XBox Viewers  
Compatibility .....: XBox 360 | PS3 | WD Live 



Source:
========
Kill Bill Vol 2 2004 1080p BluRay DTS x264-ESiR [11.00 GB]


Notes:
=======
ChattChitto RG Encourages Burning this Film with ConvertXtoDVD.
XBox 360 | PS3 | WD Live - Compatible 
Enhanced for your viewing pleasure ;)